<svg xmlns="http://www.w3.org/2000/svg" viewBox="0 0 900 1200" fill="none">
  <rect width="900" height="1200" fill="#0A0A0A"/>
  <rect width="900" height="1200" fill="url(#grain)" opacity=".16"/>
  <circle cx="666" cy="250" r="220" fill="#8B0000" fill-opacity=".36"/>
  <circle cx="690" cy="260" r="140" fill="#FF78C4" fill-opacity=".14"/>
  <path d="M458 292c-96 0-176 86-176 200v305h352V492c0-114-80-200-176-200Z" fill="#2E211E"/>
  <path d="M322 465c20-95 67-152 136-152 73 0 119 55 138 152l24 117c10 50-17 90-67 90H364c-50 0-77-40-67-90l25-117Z" fill="#C08A72"/>
  <path d="M353 409c20-57 58-96 105-96 55 0 97 41 116 102-28-18-67-31-113-31-45 0-81 9-108 25Z" fill="#191312"/>
  <path d="M385 564c24 24 56 36 91 36 27 0 51-7 74-23-22 47-62 71-107 71-48 0-86-29-107-84 16 2 33 2 49 0Z" fill="#A46356"/>
  <path d="M269 466c29-88 103-157 198-157 83 0 149 48 194 124-26-17-62-34-92-46-36-14-74-20-114-15-66 8-120 36-186 94Z" fill="#121212"/>
  <path d="M280 446c39-89 115-156 209-156 65 0 125 27 171 83-57-21-131-24-193-8-64 16-121 46-187 81Z" fill="#2E4D36"/>
  <rect x="66" y="70" width="768" height="1060" rx="28" stroke="#EEE6DD" stroke-opacity=".4" stroke-width="4"/>
  <path d="M91 114H288" stroke="#EEE6DD" stroke-opacity=".35" stroke-width="4"/>
  <path d="M645 1020h112v-112H645z" fill="#EEE6DD" fill-opacity=".94"/>
  <path d="M664 1039h18v-18h-18zM689 1039h12v-12h-12zM706 1039h31v-31h-31zM664 1014h18v-31h-18zM689 1014h12v-12h-12zM708 1008h12v-12h-12zM726 1008h12v-31h-12zM664 989h31v-31h-31zM701 989h12v-12h-12zM720 983h18v-18h-18z" fill="#2E4D36"/>
  <text x="92" y="225" fill="#EEE6DD" fill-opacity=".96" font-family="Georgia, serif" font-size="116" font-weight="700">Janice</text>
  <text x="95" y="1008" fill="#EEE6DD" fill-opacity=".58" font-family="Arial, sans-serif" font-size="22" letter-spacing="8">EDITORIAL MODEL</text>
  <text x="95" y="1048" fill="#EEE6DD" fill-opacity=".58" font-family="Arial, sans-serif" font-size="22" letter-spacing="8">SPRING VOLUME</text>
  <defs>
    <pattern id="grain" width="100" height="100" patternUnits="userSpaceOnUse">
      <circle cx="12" cy="18" r="1" fill="#fff"/>
      <circle cx="44" cy="25" r="1" fill="#fff"/>
      <circle cx="71" cy="16" r="1" fill="#fff"/>
      <circle cx="83" cy="49" r="1" fill="#fff"/>
      <circle cx="18" cy="62" r="1" fill="#fff"/>
      <circle cx="37" cy="80" r="1" fill="#fff"/>
      <circle cx="60" cy="71" r="1" fill="#fff"/>
      <circle cx="91" cy="89" r="1" fill="#fff"/>
    </pattern>
  </defs>
</svg>
